<?xml version="1.0" encoding="UTF-8"?>
<svg xmlns="http://www.w3.org/2000/svg" xmlns:xlink="http://www.w3.org/1999/xlink" width="32px" height="32px" viewBox="0 0 32 32" version="1.1">
<g id="surface1">
<path style=" stroke:none;fill-rule:nonzero;fill:rgb(100%,100%,100%);fill-opacity:1;" d="M 15.6875 0.8125 C 15.816406 0.824219 15.816406 0.824219 15.9375 0.875 C 16.011719 1.097656 16.007812 1.273438 16.007812 1.507812 C 16.007812 1.554688 16.007812 1.597656 16.007812 1.644531 C 16.007812 1.796875 16.007812 1.953125 16.007812 2.105469 C 16.007812 2.214844 16.007812 2.324219 16.007812 2.433594 C 16.007812 2.730469 16.007812 3.03125 16.007812 3.328125 C 16.007812 3.640625 16.007812 3.949219 16.003906 4.261719 C 16.003906 4.851562 16.003906 5.441406 16.003906 6.03125 C 16.003906 6.703125 16.003906 7.375 16.003906 8.042969 C 16.003906 9.425781 16 10.804688 16 12.1875 C 16.113281 12.1875 16.113281 12.1875 16.226562 12.1875 C 16.933594 12.183594 17.640625 12.179688 18.34375 12.179688 C 18.707031 12.175781 19.070312 12.175781 19.433594 12.171875 C 19.785156 12.171875 20.136719 12.171875 20.484375 12.167969 C 20.621094 12.167969 20.753906 12.167969 20.886719 12.167969 C 21.074219 12.167969 21.261719 12.167969 21.449219 12.167969 C 21.503906 12.164062 21.558594 12.164062 21.617188 12.164062 C 22.011719 12.167969 22.378906 12.21875 22.691406 12.484375 C 22.71875 12.523438 22.746094 12.558594 22.777344 12.597656 C 22.808594 12.636719 22.835938 12.671875 22.867188 12.710938 C 23.089844 13.035156 23.03125 13.4375 23 13.8125 C 22.925781 14.121094 22.816406 14.410156 22.703125 14.703125 C 22.667969 14.789062 22.636719 14.875 22.605469 14.957031 C 22.519531 15.1875 22.433594 15.414062 22.34375 15.640625 C 22.25 15.882812 22.160156 16.125 22.066406 16.371094 C 21.914062 16.773438 21.761719 17.179688 21.605469 17.582031 C 21.382812 18.160156 21.164062 18.742188 20.945312 19.324219 C 20.914062 19.414062 20.878906 19.507812 20.84375 19.597656 C 20.792969 19.734375 20.738281 19.875 20.6875 20.011719 C 20.570312 20.328125 20.449219 20.648438 20.328125 20.964844 C 20.3125 21.007812 20.296875 21.054688 20.277344 21.101562 C 20.261719 21.144531 20.246094 21.1875 20.226562 21.234375 C 19.867188 22.183594 19.511719 23.132812 19.160156 24.082031 C 18.71875 25.265625 18.277344 26.449219 17.835938 27.632812 C 17.742188 27.886719 17.644531 28.140625 17.550781 28.394531 C 17.460938 28.632812 17.371094 28.875 17.285156 29.113281 C 17.25 29.203125 17.21875 29.289062 17.183594 29.378906 C 16.644531 30.832031 16.644531 30.832031 16.3125 31.1875 C 16.191406 31.164062 16.191406 31.164062 16.0625 31.125 C 15.8125 30.625 15.929688 29.882812 15.929688 29.335938 C 15.929688 29.230469 15.929688 29.125 15.929688 29.023438 C 15.929688 28.742188 15.929688 28.460938 15.929688 28.179688 C 15.929688 27.882812 15.929688 27.589844 15.933594 27.296875 C 15.933594 26.738281 15.933594 26.183594 15.933594 25.625 C 15.933594 24.992188 15.933594 24.359375 15.933594 23.722656 C 15.933594 22.417969 15.9375 21.117188 15.9375 19.8125 C 15.863281 19.8125 15.789062 19.8125 15.714844 19.8125 C 15.015625 19.816406 14.316406 19.820312 13.617188 19.820312 C 13.257812 19.824219 12.898438 19.824219 12.539062 19.828125 C 12.191406 19.828125 11.84375 19.828125 11.496094 19.832031 C 11.367188 19.832031 11.234375 19.832031 11.101562 19.832031 C 10.917969 19.832031 10.730469 19.832031 10.546875 19.832031 C 10.464844 19.835938 10.464844 19.835938 10.378906 19.835938 C 9.984375 19.832031 9.621094 19.78125 9.308594 19.515625 C 9.28125 19.476562 9.253906 19.441406 9.222656 19.402344 C 9.191406 19.363281 9.164062 19.328125 9.132812 19.289062 C 8.910156 18.964844 8.96875 18.5625 9 18.1875 C 9.074219 17.878906 9.183594 17.589844 9.296875 17.296875 C 9.332031 17.210938 9.363281 17.125 9.394531 17.042969 C 9.480469 16.8125 9.566406 16.585938 9.65625 16.359375 C 9.75 16.113281 9.839844 15.871094 9.933594 15.628906 C 10.085938 15.222656 10.242188 14.816406 10.394531 14.414062 C 10.613281 13.847656 10.824219 13.285156 11.039062 12.71875 C 11.054688 12.675781 11.070312 12.632812 11.085938 12.585938 C 11.15625 12.410156 11.222656 12.230469 11.289062 12.054688 C 11.40625 11.742188 11.523438 11.429688 11.640625 11.121094 C 12.085938 9.933594 12.53125 8.746094 12.972656 7.558594 C 13.273438 6.746094 13.574219 5.933594 13.875 5.125 C 13.890625 5.078125 13.910156 5.035156 13.925781 4.988281 C 14.128906 4.441406 14.332031 3.894531 14.535156 3.351562 C 14.617188 3.140625 14.695312 2.929688 14.773438 2.71875 C 14.859375 2.488281 14.945312 2.257812 15.03125 2.03125 C 15.066406 1.929688 15.066406 1.929688 15.105469 1.824219 C 15.253906 1.4375 15.390625 1.109375 15.6875 0.8125 Z M 15.6875 0.8125 "/>
</g>
</svg>
